<mxfile host="Electron" modified="2024-08-18T19:19:36.894Z" agent="Mozilla/5.0 (Windows NT 10.0; Win64; x64) AppleWebKit/537.36 (KHTML, like Gecko) draw.io/21.6.5 Chrome/114.0.5735.243 Electron/25.3.1 Safari/537.36" etag="zwP2yFFROrbmNsTJaq6q" version="21.6.5" type="device">
  <diagram name="Page-1" id="lOu-u3-HYqbauGIMu6xS">
    <mxGraphModel dx="1955" dy="519" grid="1" gridSize="10" guides="1" tooltips="1" connect="1" arrows="1" fold="1" page="1" pageScale="1" pageWidth="850" pageHeight="1100" math="0" shadow="0">
      <root>
        <mxCell id="0" />
        <mxCell id="1" parent="0" />
        <mxCell id="ux6at8dUUoqEeNVLKQMM-10" value="" style="rounded=1;whiteSpace=wrap;html=1;" vertex="1" parent="1">
          <mxGeometry x="180" y="158.25" width="440" height="151.75" as="geometry" />
        </mxCell>
        <mxCell id="ux6at8dUUoqEeNVLKQMM-1" value="&lt;b&gt;&lt;font style=&quot;font-size: 18px;&quot;&gt;Data Warehousing, Pipeline,&amp;nbsp;&lt;br&gt;- AWS &lt;font style=&quot;&quot;&gt;common&lt;/font&gt; crawl&amp;nbsp;&lt;/font&gt;&lt;/b&gt;" style="rounded=0;whiteSpace=wrap;html=1;fillColor=#7EA6E0;" vertex="1" parent="1">
          <mxGeometry x="270" y="20" width="310" height="60" as="geometry" />
        </mxCell>
        <mxCell id="ux6at8dUUoqEeNVLKQMM-4" style="edgeStyle=orthogonalEdgeStyle;rounded=0;orthogonalLoop=1;jettySize=auto;html=1;entryX=0;entryY=0.5;entryDx=0;entryDy=0;" edge="1" parent="1" source="ux6at8dUUoqEeNVLKQMM-2" target="ux6at8dUUoqEeNVLKQMM-3">
          <mxGeometry relative="1" as="geometry" />
        </mxCell>
        <mxCell id="ux6at8dUUoqEeNVLKQMM-2" value="&lt;font style=&quot;font-size: 14px;&quot;&gt;&lt;b&gt;AWS S3 bucket&lt;/b&gt;&lt;/font&gt;&lt;br&gt;- Common Crawl" style="ellipse;shape=cloud;whiteSpace=wrap;html=1;" vertex="1" parent="1">
          <mxGeometry x="-90" y="195" width="200" height="100" as="geometry" />
        </mxCell>
        <mxCell id="ux6at8dUUoqEeNVLKQMM-6" style="edgeStyle=orthogonalEdgeStyle;rounded=0;orthogonalLoop=1;jettySize=auto;html=1;" edge="1" parent="1" source="ux6at8dUUoqEeNVLKQMM-3" target="ux6at8dUUoqEeNVLKQMM-5">
          <mxGeometry relative="1" as="geometry" />
        </mxCell>
        <mxCell id="ux6at8dUUoqEeNVLKQMM-3" value="Bash script&lt;br&gt;- Download data" style="rounded=0;whiteSpace=wrap;html=1;" vertex="1" parent="1">
          <mxGeometry x="220" y="225" width="130" height="40" as="geometry" />
        </mxCell>
        <mxCell id="ux6at8dUUoqEeNVLKQMM-8" style="edgeStyle=orthogonalEdgeStyle;rounded=0;orthogonalLoop=1;jettySize=auto;html=1;entryX=0;entryY=0.5;entryDx=0;entryDy=0;entryPerimeter=0;" edge="1" parent="1" source="ux6at8dUUoqEeNVLKQMM-5" target="ux6at8dUUoqEeNVLKQMM-7">
          <mxGeometry relative="1" as="geometry" />
        </mxCell>
        <mxCell id="ux6at8dUUoqEeNVLKQMM-5" value="Data Transformation&lt;br&gt;- SQL, python" style="rounded=0;whiteSpace=wrap;html=1;" vertex="1" parent="1">
          <mxGeometry x="425" y="222.5" width="155" height="45" as="geometry" />
        </mxCell>
        <mxCell id="ux6at8dUUoqEeNVLKQMM-7" value="&lt;font style=&quot;font-size: 14px;&quot;&gt;&lt;b&gt;Data Warehousing, Storage&lt;/b&gt;&lt;/font&gt;&lt;br&gt;- Snowflake, Google Bigquey&lt;br&gt;- SQL Server" style="shape=cylinder3;whiteSpace=wrap;html=1;boundedLbl=1;backgroundOutline=1;size=15;" vertex="1" parent="1">
          <mxGeometry x="720" y="177" width="160" height="136" as="geometry" />
        </mxCell>
        <mxCell id="ux6at8dUUoqEeNVLKQMM-11" value="&lt;font style=&quot;font-size: 14px;&quot;&gt;Data Transformation, Pre-processing&lt;/font&gt;" style="text;html=1;strokeColor=none;fillColor=none;align=center;verticalAlign=middle;whiteSpace=wrap;rounded=0;" vertex="1" parent="1">
          <mxGeometry x="280" y="158.25" width="250" height="32" as="geometry" />
        </mxCell>
      </root>
    </mxGraphModel>
  </diagram>
</mxfile>
